:SAMPLES-PER-SECOND 30
:FULLY-SPECIFIED
:DEGREES
78
root  47.559 38.7301 0.639121 -154.556 84.8876 -154.995
RightUpLeg  -28.462 0.822735 4.62124
RightLeg  6.85002 8.58541 2.13471
RightFoot  1.13927 -0.936495 7.43058
RightToes  1.74622e-010 -1.59028e-015 9.93923e-017
Spine  2.23239 -5.50408 -7.46921
Spine1  10.6785 -7.98843 8.34215
HEad  -1.8504 7.31659 1.48254
LeftShoulder1  9.93923e-017 0 1.22299e-017
LeftArm  12.8512 4.13874 -79.0179
LeftForeArm  -33.6695 -38.0061 23.2678
LeftHand  0.889753 6.10466 -3.57606
RightShoulder  1.98785e-016 -4.96962e-017 1.55301e-017
RightArm  42.4738 -54.1108 60.2888
RightForeArm  -49.7477 20.7332 -19.9194
RightHand  1.40618 -13.0284 -3.40869
LeftUpLeg  15.5184 1.41773 1.40193
LeftLeg  10.7258 -19.5632 0.215046
LeftFoot  -4.58724 0.277605 -3.803
LeftToes  -5.36576e-011 -1.15168e-011 3.25213e-012
79
root  49.6193 38.3289 0.596303 -155.626 83.7695 -157.01
RightUpLeg  -27.952 5.03806 2.60583
RightLeg  2.32658 0.801453 1.82051
RightFoot  0.949491 -0.622447 5.05657
RightToes  1.74622e-010 -1.59028e-015 9.93923e-017
Spine  1.2607 -5.99993 -6.60211
Spine1  11.1371 -8.75787 9.30213
HEad  -3.848 7.38088 1.00195
LeftShoulder1  9.93923e-017 0 1.22299e-017
LeftArm  13.4346 7.22077 -80.8361
LeftForeArm  -33.7088 -35.7681 22.1413
LeftHand  0.862517 5.96997 -2.31934
RightShoulder  1.98785e-016 -4.96962e-017 1.55301e-017
RightArm  42.7311 -55.5682 57.5016
RightForeArm  -49.621 20.182 -17.9195
RightHand  1.45052 -13.282 -3.61391
LeftUpLeg  17.1797 -0.426744 2.10424
LeftLeg  11.4588 -18.7951 -0.292314
LeftFoot  -3.27451 0.43338 -5.06133
LeftToes  -5.36576e-011 -1.15168e-011 3.25213e-012
80
root  51.7259 37.838 0.543989 -150.472 82.3709 -152.72
RightUpLeg  -29.004 5.38996 3.88992
RightLeg  5.45253 -2.26952 0.212367
RightFoot  4.98853 -0.261304 1.77679
RightToes  1.74622e-010 -1.59028e-015 9.93923e-017
Spine  0.778247 -6.14855 -3.494
Spine1  11.0459 -8.87471 9.24758
HEad  -6.24962 6.77737 0.415762
LeftShoulder1  9.93923e-017 0 1.22299e-017
LeftArm  15.0382 11.1891 -83.1874
LeftForeArm  -34.7244 -33.0245 20.7953
LeftHand  0.830484 5.85493 -0.694521
RightShoulder  1.98785e-016 -4.96962e-017 1.55301e-017
RightArm  40.465 -57.1909 55.5692
RightForeArm  -47.8581 19.9487 -14.9847
RightHand  1.49642 -13.3581 -4.19843
LeftUpLeg  17.5415 -3.96817 3.53981
LeftLeg  14.7653 -16.6579 -1.82107
LeftFoot  -0.543368 0.884502 -7.78463
LeftToes  -5.36576e-011 -1.15168e-011 3.25213e-012
81
root  53.7901 37.2528 0.506547 -137.464 81.3559 -139.821
RightUpLeg  -30.7637 5.16356 7.25516
RightLeg  13.3835 -1.32851 -2.02906
RightFoot  9.05235 0.270886 -1.35825
RightToes  1.74622e-010 -1.59028e-015 9.93923e-017
Spine  1.28546 -5.43506 1.86985
Spine1  10.7175 -7.5534 7.62364
HEad  -9.17818 5.65106 0.0550501
LeftShoulder1  9.93923e-017 0 1.22299e-017
LeftArm  20.5584 15.0605 -86.0172
LeftForeArm  -39.5419 -29.0307 19.4406
LeftHand  0.739443 5.43942 1.45142
RightShoulder  1.98785e-016 -4.96962e-017 1.55301e-017
RightArm  29.9683 -57.5094 56.011
RightForeArm  -38.5846 18.4076 -8.02361
RightHand  1.53251 -13.357 -4.77297
LeftUpLeg  16.2464 -4.40194 6.94489
LeftLeg  22.2198 -17.0098 -4.00436
LeftFoot  6.4261 1.80801 -10.1514
LeftToes  -5.36576e-011 -1.15168e-011 3.25213e-012
82
root  55.6623 36.7354 0.52023 -121.814 80.7198 -123.502
RightUpLeg  -31.8773 6.18858 10.7436
RightLeg  21.9139 0.64042 -3.91206
RightFoot  7.86524 0.721882 -3.97301
RightToes  1.74622e-010 -1.59028e-015 9.93923e-017
Spine  2.79835 -4.16546 7.0363
Spine1  10.7413 -5.3192 5.61089
HEad  -11.7512 4.61984 0.38948
LeftShoulder1  9.93923e-017 0 1.22299e-017
LeftArm  21.6417 18.0538 -88.2402
LeftForeArm  -39.3922 -24.4743 12.8279
LeftHand  0.595855 4.80716 3.71014
RightShoulder  1.98785e-016 -4.96962e-017 1.55301e-017
RightArm  10.2956 -54.9553 60.1671
RightForeArm  -20.1155 12.3771 1.68795
RightHand  1.53117 -13.4392 -4.5785
LeftUpLeg  13.0181 -2.37338 10.6175
LeftLeg  33.1421 -17.7968 -5.40462
LeftFoot  15.8602 2.91092 -10.9464
LeftToes  -5.36576e-011 -1.15168e-011 3.25213e-012
83
root  57.3369 36.5495 0.581884 -111.985 80.2322 -112.943
RightUpLeg  -31.3309 7.74862 12.7267
RightLeg  27.7766 0.867905 -5.02648
RightFoot  2.62684 0.767391 -5.55334
RightToes  1.74622e-010 -1.59028e-015 9.93923e-017
Spine  4.22253 -3.19591 9.80866
Spine1  11.2583 -3.58038 4.66263
HEad  -12.6871 4.12756 1.58316
LeftShoulder1  9.93923e-017 0 1.22299e-017
LeftArm  9.59901 20.5767 -88.6252
LeftForeArm  -25.5744 -16.5951 -0.016058
LeftHand  0.555475 4.61061 4.18005
RightShoulder  1.98785e-016 -4.96962e-017 1.55301e-017
RightArm  -7.83546 -50.0975 66.9626
RightForeArm  -3.55286 5.79437 6.37969
RightHand  1.49643 -13.5369 -3.82886
LeftUpLeg  7.58335 -2.72704 12.1234
LeftLeg  44.7425 -14.9636 -4.03481
LeftFoot  21.6539 3.45895 -10.736
LeftToes  -5.36576e-011 -1.15168e-011 3.25213e-012
84
root  59.0343 36.8077 0.654734 -111.564 80.165 -112.205
RightUpLeg  -28.5826 7.72746 13.5125
RightLeg  29.2505 0.686513 -5.48686
RightFoot  -1.77437 0.555568 -5.54188
RightToes  1.74622e-010 -1.59028e-015 9.93923e-017
Spine  4.42571 -2.78156 10.1478
Spine1  11.78 -2.90233 4.51126
HEad  -11.8128 3.91015 3.2156
LeftShoulder1  9.93923e-017 0 1.22299e-017
LeftArm  -1.80067 23.941 -87.6937
LeftForeArm  -11.665 -8.84691 -6.90406
LeftHand  0.714912 5.32923 1.74076
RightShoulder  1.98785e-016 -4.96962e-017 1.55301e-017
RightArm  -17.6361 -44.9612 74.1065
RightForeArm  2.83786 3.53442 6.84151
RightHand  1.46703 -13.4278 -3.57911
LeftUpLeg  0.501132 -5.18856 11.601
LeftLeg  54.2726 -11.5906 0.143663
LeftFoot  21.5373 2.91558 -9.01082
LeftToes  -5.36576e-011 -1.15168e-011 3.25213e-012
85
root  60.8541 37.3608 0.709839 -115.738 80.6319 -116.277
RightUpLeg  -24.1064 7.73922 13.2841
RightLeg  27.2741 -0.121886 -5.45518
RightFoot  -3.62301 0.392451 -4.73322
RightToes  1.74622e-010 -1.59028e-015 9.93923e-017
Spine  3.6764 -2.47118 9.46946
Spine1  11.9617 -2.5681 4.09988
HEad  -10.1716 3.34081 4.55555
LeftShoulder1  9.93923e-017 0 1.22299e-017
LeftArm  -8.48843 28.6715 -85.8668
LeftForeArm  1.01605 -5.77693 -6.80412
LeftHand  0.9378 6.64578 -1.94507
RightShoulder  1.98785e-016 -4.96962e-017 1.55301e-017
RightArm  -15.8127 -40.7441 80.3943
RightForeArm  -5.00943 8.28214 4.29442
RightHand  1.46499 -13.0702 -4.31511
LeftUpLeg  -6.701 -8.48008 10.0985
LeftLeg  60.2662 -9.88218 3.94928
LeftFoot  18.7959 1.83611 -6.13334
LeftToes  -5.36576e-011 -1.15168e-011 3.25213e-012
86
root  62.6874 37.9728 0.738737 -118.812 81.6235 -119.094
RightUpLeg  -18.8932 9.13869 12.6738
RightLeg  24.0311 -1.78659 -5.45181
RightFoot  -4.64032 0.315852 -4.26822
RightToes  1.74622e-010 -1.59028e-015 9.93923e-017
Spine  2.97133 -1.81351 8.90435
Spine1  11.8602 -1.74012 3.13333
HEad  -8.69748 2.12053 5.16728
LeftShoulder1  9.93923e-017 0 1.22299e-017
LeftArm  -10.676 34.1893 -83.1628
LeftForeArm  9.86423 -4.78789 -6.30363
LeftHand  1.06199 7.69726 -4.44487
RightShoulder  1.98785e-016 -4.96962e-017 1.55301e-017
RightArm  4.22863 -37.3083 85.7811
RightForeArm  -31.757 16.7855 -7.80564
RightHand  1.48023 -12.699 -5.44734
LeftUpLeg  -12.9195 -11.2313 8.46154
LeftLeg  62.5955 -9.74468 4.93685
LeftFoot  16.824 1.23044 -4.37988
LeftToes  -5.36576e-011 -1.15168e-011 3.25213e-012
87
root  64.484 38.4957 0.739634 -118.83 83.08 -118.752
RightUpLeg  -13.7 9.78614 12.2527
RightLeg  20.8059 -2.26912 -5.38443
RightFoot  -5.79615 0.27593 -4.32577
RightToes  1.74622e-010 -1.59028e-015 9.93923e-017
Spine  2.5375 -0.778372 8.82913
Spine1  11.5889 -0.325637 1.74792
HEad  -7.52065 0.489006 5.16686
LeftShoulder1  9.93923e-017 0 1.22299e-017
LeftArm  -2.52585 39.901 -79.8104
LeftForeArm  5.64071 -6.24258 -6.47045
LeftHand  1.0693 7.82603 -5.12337
RightShoulder  1.98785e-016 -4.96962e-017 1.55301e-017
RightArm  18.7951 -33.8113 88.7562
RightForeArm  -47.904 22.3315 -20.4022
RightHand  1.50329 -12.6164 -6.05986
LeftUpLeg  -18.1442 -12.7736 6.99783
LeftLeg  61.799 -10.0605 4.0747
LeftFoot  15.7281 1.18816 -4.39304
LeftToes  -5.36576e-011 -1.15168e-011 3.25213e-012
88
root  66.279 38.884 0.709089 -114.329 84.596 -114.039
RightUpLeg  -8.95645 7.81767 11.8601
RightLeg  17.8258 -0.0106192 -4.68464
RightFoot  -6.32364 0.257511 -4.34381
RightToes  1.74622e-010 -1.59028e-015 9.93923e-017
Spine  2.02018 0.423914 9.45648
Spine1  11.235 1.34336 -0.147583
HEad  -6.57167 -1.06479 4.90444
LeftShoulder1  9.93923e-017 0 1.22299e-017
LeftArm  9.84851 45.5428 -75.3722
LeftForeArm  -5.65303 -8.49022 -6.77135
LeftHand  1.013 7.23575 -5.41405
RightShoulder  1.98785e-016 -4.96962e-017 1.55301e-017
RightArm  16.6463 -29.8159 89.1562
RightForeArm  -41.319 27.7658 -25.6392
RightHand  1.52724 -12.815 -5.97159
LeftUpLeg  -22.7575 -13.066 5.98267
LeftLeg  58.2968 -9.669 3.91109
LeftFoot  14.398 1.29938 -5.0776
LeftToes  -5.36576e-011 -1.15168e-011 3.25213e-012
89
root  68.0608 39.1353 0.646221 -101.456 85.5577 -101.027
RightUpLeg  -4.7518 5.44742 11.2949
RightLeg  15.4292 2.92913 -3.462
RightFoot  -6.176 0.239131 -3.95312
RightToes  1.74622e-010 -1.59028e-015 9.93923e-017
Spine  1.48681 1.65269 10.9568
Spine1  10.9751 3.04166 -2.49901
HEad  -6.02522 -2.20528 4.61335
LeftShoulder1  9.93923e-017 0 1.22299e-017
LeftArm  17.8833 50.4929 -69.5512
LeftForeArm  -12.9857 -10.3337 -6.25025
LeftHand  0.974785 6.78562 -7.09919
RightShoulder  1.98785e-016 -4.96962e-017 1.55301e-017
RightArm  15.3296 -25.4047 88.5578
RightForeArm  -35.6905 33.6627 -30.17
RightHand  1.53248 -12.9248 -5.78165
LeftUpLeg  -26.6175 -12.1325 5.67587
LeftLeg  52.5652 -8.24942 4.76779
LeftFoot  13.0174 1.30634 -5.39371
LeftToes  -5.36576e-011 -1.15168e-011 3.25213e-012
